# xmcd
# 
# Track frame offsets:
#	150
#	17522
#	28115
#	43905
#	56050
#	76007
#	92135
#	110522
#	127467
#
# Disc length: 1877 seconds
#
# Revision: 1
# Processed by: cddbd v1.4PL0 Copyright (c) Steve Scherf et al.
# Submitted via: Audio-CD-Archiv 2.10.446
#
DISCID=76075309
DTITLE=Heather Judd - Beauty Like A Crime
DYEAR=1900
DGENRE=country
TTITLE0=Beauty like a crime
TTITLE1=Love is freedom
TTITLE2=The special one
TTITLE3=It's over
TTITLE4=Well of loneliness
TTITLE5=Something I never heard
TTITLE6=Far Pavilions
TTITLE7=Cry to heaven
TTITLE8=Cliff's song
EXTD=
EXTT0=
EXTT1=
EXTT2=
EXTT3=
EXTT4=
EXTT5=
EXTT6=
EXTT7=
EXTT8=
PLAYORDER=
